<svg width="172" height="82" viewBox="0 0 172 82" fill="none" xmlns="http://www.w3.org/2000/svg">
<path d="M60.47 81C68.7322 81 75.43 74.3872 75.43 66.23C75.43 58.0727 68.7322 51.46 60.47 51.46C52.2078 51.46 45.51 58.0727 45.51 66.23C45.51 74.3872 52.2078 81 60.47 81Z" stroke="#828282" stroke-width="2" stroke-linecap="round" stroke-linejoin="round"/>
<path d="M60.58 58.8C61.5605 58.7934 62.5326 58.9802 63.4409 59.3496C64.3492 59.7191 65.1757 60.2639 65.8732 60.9531C66.5707 61.6422 67.1255 62.4621 67.5059 63.3659C67.8862 64.2696 68.0847 65.2395 68.09 66.22" stroke="#828282" stroke-width="2" stroke-linecap="round" stroke-linejoin="round"/>
<path d="M60.5799 73.64C58.6005 73.6506 56.6977 72.8752 55.2896 71.4839C53.8815 70.0927 53.0832 68.1994 53.0699 66.22" stroke="#828282" stroke-width="2" stroke-linecap="round" stroke-linejoin="round"/>
<path d="M134.88 81C143.142 81 149.84 74.3872 149.84 66.23C149.84 58.0727 143.142 51.46 134.88 51.46C126.618 51.46 119.92 58.0727 119.92 66.23C119.92 74.3872 126.618 81 134.88 81Z" stroke="#828282" stroke-width="2" stroke-linecap="round" stroke-linejoin="round"/>
<path d="M134.74 58.8C136.719 58.7894 138.622 59.5649 140.03 60.9561C141.438 62.3473 142.237 64.2406 142.25 66.22" stroke="#828282" stroke-width="2" stroke-linecap="round" stroke-linejoin="round"/>
<path d="M134.74 73.64C133.759 73.6466 132.787 73.4598 131.879 73.0903C130.971 72.7209 130.144 72.176 129.447 71.4869C128.749 70.7977 128.194 69.9778 127.814 69.0741C127.434 68.1703 127.235 67.2005 127.23 66.22" stroke="#828282" stroke-width="2" stroke-linecap="round" stroke-linejoin="round"/>
<path d="M85.64 66.59H119.93" stroke="#828282" stroke-width="2" stroke-linecap="round" stroke-linejoin="round"/>
<path d="M22.9 66.59H45.52" stroke="#828282" stroke-width="2" stroke-linecap="round" stroke-linejoin="round"/>
<path d="M150.57 66.59H162.7C164.734 66.5943 166.7 65.856 168.228 64.5137C169.756 63.1715 170.742 61.3175 171 59.3C171 59.3 166.53 1 126.34 1H1" stroke="#828282" stroke-width="2" stroke-linecap="round" stroke-linejoin="round"/>
<path d="M154.21 37.04H13.42" stroke="#828282" stroke-width="2" stroke-linecap="round" stroke-linejoin="round"/>
<path d="M121.85 28.12C119.957 23.4967 116.728 19.5434 112.575 16.7661C108.423 13.9888 103.536 12.5139 98.54 12.53H6.11999" stroke="#828282" stroke-width="2" stroke-linecap="round" stroke-linejoin="round"/>
</svg>
