<svg width="142" height="122" viewBox="0 0 142 122" fill="none" xmlns="http://www.w3.org/2000/svg">
<path d="M49.2302 21.3201H10.0702C7.64784 21.3386 5.33191 22.3179 3.63122 24.043C1.93054 25.7681 0.984226 28.0977 1.0002 30.5201V111.81C0.992294 113.009 1.22063 114.198 1.67217 115.309C2.1237 116.419 2.7896 117.43 3.63183 118.284C4.47406 119.137 5.47613 119.816 6.58083 120.282C7.68553 120.748 8.87122 120.992 10.0702 121H112.83C114.029 120.992 115.215 120.748 116.32 120.282C117.424 119.816 118.426 119.137 119.269 118.284C120.111 117.43 120.777 116.419 121.228 115.309C121.68 114.198 121.908 113.009 121.9 111.81V48.9001C121.908 47.7011 121.68 46.5123 121.228 45.4016C120.777 44.2908 120.111 43.2799 119.269 42.4266C118.426 41.5732 117.424 40.8941 116.32 40.428C115.215 39.9619 114.029 39.7179 112.83 39.7101H67.3802C64.9578 39.6942 62.6409 38.7174 60.9383 36.9942C59.2358 35.271 58.2869 32.9424 58.3002 30.5201V30.5201C58.3162 28.0977 57.3699 25.7681 55.6692 24.043C53.9685 22.3179 51.6526 21.3386 49.2302 21.3201V21.3201Z" stroke="#828282" stroke-width="2" stroke-linecap="round" stroke-linejoin="round"/>
<path d="M122.38 111.32C123.579 111.312 124.765 111.068 125.87 110.602C126.974 110.136 127.976 109.457 128.819 108.603C129.661 107.75 130.327 106.739 130.778 105.628C131.23 104.518 131.458 103.329 131.45 102.13V20.8399C131.458 19.6409 131.23 18.4521 130.778 17.3414C130.327 16.2307 129.661 15.2198 128.819 14.3664C127.976 13.513 126.974 12.8339 125.87 12.3678C124.765 11.9017 123.579 11.6578 122.38 11.6499H19.6202C18.4213 11.6578 17.2356 11.9017 16.1309 12.3678C15.0262 12.8339 14.0241 13.513 13.1819 14.3664C12.3396 15.2198 11.6737 16.2307 11.2222 17.3414C10.7707 18.4521 10.5423 19.6409 10.5502 20.8399" stroke="#828282" stroke-width="2" stroke-linecap="round" stroke-linejoin="round"/>
<path d="M131.93 100.68C134.353 100.662 136.668 99.6821 138.369 97.9571C140.07 96.232 141.016 93.9024 141 91.48V10.19C141.008 8.99102 140.78 7.80223 140.328 6.6915C139.877 5.58077 139.211 4.56986 138.369 3.71648C137.526 2.86311 136.524 2.18398 135.42 1.71789C134.315 1.25179 133.129 1.00785 131.93 1H29.1702C27.9712 1.00785 26.7855 1.25179 25.6808 1.71789C24.5761 2.18398 23.574 2.86311 22.7318 3.71648C21.8896 4.56986 21.2237 5.58077 20.7721 6.6915C20.3206 7.80223 20.0923 8.99102 20.1002 10.19" stroke="#828282" stroke-width="2" stroke-linecap="round" stroke-linejoin="round"/>
<path d="M1.00024 51.3201H93.2502" stroke="#828282" stroke-width="2" stroke-linecap="round" stroke-linejoin="round"/>
</svg>
