<svg width="90" height="122" viewBox="0 0 90 122" fill="none" xmlns="http://www.w3.org/2000/svg">
<path d="M61.494 13.0002H16.4595C7.92144 13.0002 1 19.9846 1 28.6002V105.4C1 114.016 7.92144 121 16.4595 121H61.494C70.0321 121 76.9535 114.016 76.9535 105.4V28.6002C76.9535 19.9846 70.0321 13.0002 61.494 13.0002Z" stroke="#828282" stroke-width="2" stroke-linecap="round" stroke-linejoin="round"/>
<path d="M13.0464 13.0003C13.0684 9.79746 14.3496 6.73449 16.6084 4.48439C18.8672 2.23429 21.9189 0.981133 25.0929 1.00029H76.9534C78.5254 0.989227 80.0842 1.29093 81.5407 1.88814C82.9971 2.48536 84.3226 3.36639 85.4414 4.48085C86.5601 5.59531 87.4503 6.92136 88.0609 8.38318C88.6715 9.845 88.9906 11.4139 88.9999 13.0003V97.0001C88.9906 98.5864 88.6715 100.155 88.0609 101.617C87.4503 103.079 86.5601 104.405 85.4414 105.519C84.3226 106.634 82.9971 107.515 81.5407 108.112C80.0842 108.709 78.5254 109.011 76.9534 109" stroke="#828282" stroke-width="2" stroke-linecap="round" stroke-linejoin="round"/>
<path d="M13.0464 28.6962H39.9102" stroke="#828282" stroke-width="2" stroke-linecap="round" stroke-linejoin="round"/>
<path d="M13.0464 57.3042H63.0637" stroke="#828282" stroke-width="2" stroke-linecap="round" stroke-linejoin="round"/>
<path d="M13.0464 67.4562H63.0637" stroke="#828282" stroke-width="2" stroke-linecap="round" stroke-linejoin="round"/>
<path d="M13.0464 77.6201H36.1999" stroke="#828282" stroke-width="2" stroke-linecap="round" stroke-linejoin="round"/>
<path d="M58.4259 112.684C63.5421 112.684 67.6897 108.552 67.6897 103.456C67.6897 98.3595 63.5421 94.228 58.4259 94.228C53.3096 94.228 49.1621 98.3595 49.1621 103.456C49.1621 108.552 53.3096 112.684 58.4259 112.684Z" stroke="#828282" stroke-width="2" stroke-linecap="round" stroke-linejoin="round"/>
</svg>
