<svg width="173" height="68" viewBox="0 0 173 68" fill="none" xmlns="http://www.w3.org/2000/svg">
<path d="M39.8641 56C47.5961 56 53.8641 49.7633 53.8641 42.07C53.8641 34.3767 47.5961 28.14 39.8641 28.14C32.1321 28.14 25.8641 34.3767 25.8641 42.07C25.8641 49.7633 32.1321 56 39.8641 56Z" stroke="#828282" stroke-width="2" stroke-linecap="round" stroke-linejoin="round"/>
<path d="M39.9242 35.27C41.7807 35.27 43.5612 36.0075 44.8739 37.3203C46.1867 38.633 46.9242 40.4135 46.9242 42.27" stroke="#828282" stroke-width="2" stroke-linecap="round" stroke-linejoin="round"/>
<path d="M39.9242 49.23C38.0677 49.23 36.2872 48.4925 34.9744 47.1797C33.6617 45.867 32.9242 44.0865 32.9242 42.23" stroke="#828282" stroke-width="2" stroke-linecap="round" stroke-linejoin="round"/>
<path d="M21.7742 51.29L11.5242 50.37C9.628 49.8306 7.86602 48.8996 6.35198 47.637C4.83793 46.3745 3.60547 44.8084 2.73416 43.04C0.794157 39.04 0.0541545 35.86 2.79415 34.04C7.74415 30.75 21.7942 20.04 58.0842 20.9L71.3642 21.75" stroke="#828282" stroke-width="2" stroke-linecap="round" stroke-linejoin="round"/>
<path d="M45.6041 20.0601C45.6041 20.0601 54.2441 13.1901 71.1341 9.06006" stroke="#828282" stroke-width="2" stroke-linecap="round" stroke-linejoin="round"/>
<path d="M58.2842 51.6H70.0642" stroke="#828282" stroke-width="2" stroke-linecap="round" stroke-linejoin="round"/>
<path d="M89.8741 1H150.524C153.619 1 156.587 2.22952 158.776 4.41807C160.965 6.60662 162.194 9.57493 162.194 12.67V58.93H78.1941V12.67C78.1941 11.1366 78.4963 9.6183 79.0834 8.20178C79.6705 6.78526 80.531 5.49832 81.6157 4.41453C82.7004 3.33074 83.9881 2.47134 85.4051 1.88546C86.8221 1.29957 88.3407 0.99869 89.8741 1V1Z" stroke="#828282" stroke-width="2" stroke-linecap="round" stroke-linejoin="round"/>
<path d="M69.3342 58.9301H171.004C171.004 61.0704 170.154 63.123 168.641 64.6364C167.127 66.1498 165.075 67.0001 162.934 67.0001H77.3942C75.2539 67.0001 73.2013 66.1498 71.6879 64.6364C70.1745 63.123 69.3242 61.0704 69.3242 58.9301V58.9301H69.3342Z" stroke="#828282" stroke-width="2" stroke-linecap="round" stroke-linejoin="round"/>
<path d="M90.6941 21.53V43.53" stroke="#828282" stroke-width="2" stroke-linecap="round" stroke-linejoin="round"/>
<path d="M98.8042 28.87V43.53" stroke="#828282" stroke-width="2" stroke-linecap="round" stroke-linejoin="round"/>
<path d="M106.904 15.67V43.53" stroke="#828282" stroke-width="2" stroke-linecap="round" stroke-linejoin="round"/>
<path d="M115.004 35.47V43.53" stroke="#828282" stroke-width="2" stroke-linecap="round" stroke-linejoin="round"/>
<path d="M137.874 24.83V19.33C135.554 19.3398 133.29 20.0368 131.365 21.3328C129.441 22.6288 127.944 24.4657 127.064 26.6118C126.183 28.7578 125.957 31.1168 126.416 33.3908C126.875 35.6648 127.997 37.752 129.64 39.3889C131.284 41.0258 133.376 42.1389 135.652 42.5879C137.928 43.0369 140.286 42.8015 142.428 41.9114C144.571 41.0214 146.401 39.5167 147.689 37.5871C148.977 35.6576 149.664 33.3898 149.664 31.07H144.134" stroke="#828282" stroke-width="2" stroke-linecap="round" stroke-linejoin="round"/>
</svg>
