<svg width="172" height="47" viewBox="0 0 172 47" fill="none" xmlns="http://www.w3.org/2000/svg">
<path d="M21.6209 45.0029L11.4409 44.0829C9.57404 43.5628 7.83654 42.658 6.34 41.4267C4.84346 40.1953 3.62094 38.6647 2.75093 36.9329C0.800927 33.0829 0.0609273 29.9029 2.75093 28.0829C7.75093 24.9029 21.6209 14.4629 57.6509 15.2629L83.0409 16.8729" stroke="#828282" stroke-width="2" stroke-linecap="round" stroke-linejoin="round"/>
<path d="M45.2709 14.4429C45.2709 14.4429 58.1009 4.44293 83.0409 1.44293C83.0409 1.44293 118.351 -2.41707 153.451 12.6529" stroke="#828282" stroke-width="2" stroke-linecap="round" stroke-linejoin="round"/>
<path d="M57.6709 44.9529H109.581" stroke="#828282" stroke-width="2" stroke-linecap="round" stroke-linejoin="round"/>
<path d="M22.5709 44.953C22.5709 40.2984 24.4199 35.8345 27.7112 32.5432C31.0025 29.252 35.4664 27.403 40.1209 27.403C44.7755 27.403 49.2394 29.252 52.5306 32.5432C55.8219 35.8345 57.6709 40.2984 57.6709 44.953" stroke="#828282" stroke-width="2" stroke-linecap="round" stroke-linejoin="round"/>
<path d="M144.681 44.953C144.681 40.2984 142.832 35.8345 139.541 32.5432C136.249 29.252 131.785 27.403 127.131 27.403C122.476 27.403 118.012 29.252 114.721 32.5432C111.43 35.8345 109.581 40.2984 109.581 44.953" stroke="#828282" stroke-width="2" stroke-linecap="round" stroke-linejoin="round"/>
<path d="M144.681 44.9529C144.681 44.9529 165.151 44.9529 171.001 29.8829V16.9629C171.001 16.9629 122.751 -0.977115 86.9109 23.4229" stroke="#828282" stroke-width="2" stroke-linecap="round" stroke-linejoin="round"/>
</svg>
