<svg width="172" height="70" viewBox="0 0 172 70" fill="none" xmlns="http://www.w3.org/2000/svg">
<path d="M58.6545 59C55.5605 62.1629 51.8686 64.6762 47.7945 66.3932C43.7204 68.1101 39.3458 68.9963 34.9262 69C25.9284 69 17.2991 65.4179 10.9367 59.0416C4.57435 52.6654 1 44.0174 1 35C1 25.9826 4.57435 17.3346 10.9367 10.9584C17.2991 4.58213 25.9284 1 34.9262 1C39.3458 1.00366 43.7204 1.88986 47.7945 3.60683C51.8686 5.3238 55.5605 7.83712 58.6545 11" stroke="#828282" stroke-width="2" stroke-linecap="round" stroke-linejoin="round"/>
<path d="M34.6967 50.5499C43.3818 50.5499 50.4225 43.4178 50.4225 34.6199C50.4225 25.822 43.3818 18.6899 34.6967 18.6899C26.0116 18.6899 18.9709 25.822 18.9709 34.6199C18.9709 43.4178 26.0116 50.5499 34.6967 50.5499Z" stroke="#828282" stroke-width="2" stroke-linecap="round" stroke-linejoin="round"/>
<path d="M34.6967 42.97C39.2486 42.97 42.9387 39.2316 42.9387 34.62C42.9387 30.0084 39.2486 26.27 34.6967 26.27C30.1447 26.27 26.4546 30.0084 26.4546 34.62C26.4546 39.2316 30.1447 42.97 34.6967 42.97Z" stroke="#828282" stroke-width="2" stroke-linecap="round" stroke-linejoin="round"/>
<path d="M64.5916 5L46.022 23.73C48.975 26.7346 50.6303 30.7827 50.6303 35C50.6303 39.2173 48.975 43.2654 46.022 46.27L64.5616 65.05C72.4202 57.0426 76.8268 46.2626 76.8324 35.0311C76.8379 23.7997 72.4422 13.0153 64.5916 5Z" stroke="#828282" stroke-width="2" stroke-linecap="round" stroke-linejoin="round"/>
<path d="M50.4225 35.38H65.3999" stroke="#828282" stroke-width="2" stroke-linecap="round" stroke-linejoin="round"/>
<path d="M151.353 4.15002H108.267C97.4158 4.15002 88.6194 12.9655 88.6194 23.84V46.17C88.6194 57.0445 97.4158 65.86 108.267 65.86H151.353C162.204 65.86 171 57.0445 171 46.17V23.84C171 12.9655 162.204 4.15002 151.353 4.15002Z" stroke="#828282" stroke-width="2" stroke-linecap="round" stroke-linejoin="round"/>
<path d="M109.214 36.01C115.623 36.01 120.819 30.7449 120.819 24.25C120.819 17.7551 115.623 12.49 109.214 12.49C102.805 12.49 97.6096 17.7551 97.6096 24.25C97.6096 30.7449 102.805 36.01 109.214 36.01Z" stroke="#828282" stroke-width="2" stroke-linecap="round" stroke-linejoin="round"/>
<path d="M109.584 29.18C112.063 29.18 114.074 27.1429 114.074 24.63C114.074 22.1171 112.063 20.08 109.584 20.08C107.104 20.08 105.093 22.1171 105.093 24.63C105.093 27.1429 107.104 29.18 109.584 29.18Z" stroke="#828282" stroke-width="2" stroke-linecap="round" stroke-linejoin="round"/>
<path d="M119.322 16.29H156.042C156.447 16.2991 156.845 16.3882 157.214 16.5522C157.584 16.7162 157.917 16.9518 158.196 17.2456C158.474 17.5393 158.691 17.8853 158.836 18.2636C158.98 18.642 159.048 19.0452 159.036 19.45V28.3C159.048 28.7049 158.98 29.1081 158.836 29.4864C158.691 29.8648 158.474 30.2108 158.196 30.5045C157.917 30.7983 157.584 31.0339 157.214 31.1979C156.845 31.3619 156.447 31.451 156.042 31.46H119.322" stroke="#828282" stroke-width="2" stroke-linecap="round" stroke-linejoin="round"/>
<path d="M153.777 44.36H104.345C101.865 44.36 99.8547 46.3747 99.8547 48.86V48.97C99.8547 51.4553 101.865 53.47 104.345 53.47H153.777C156.257 53.47 158.268 51.4553 158.268 48.97V48.86C158.268 46.3747 156.257 44.36 153.777 44.36Z" stroke="#828282" stroke-width="2" stroke-linecap="round" stroke-linejoin="round"/>
<path d="M111.09 44.36V53.46" stroke="#828282" stroke-width="2" stroke-linecap="round" stroke-linejoin="round"/>
<path d="M123.064 44.36V53.46" stroke="#828282" stroke-width="2" stroke-linecap="round" stroke-linejoin="round"/>
<path d="M135.048 44.36V53.46" stroke="#828282" stroke-width="2" stroke-linecap="round" stroke-linejoin="round"/>
<path d="M147.781 44.36V53.46" stroke="#828282" stroke-width="2" stroke-linecap="round" stroke-linejoin="round"/>
</svg>
