<svg width="92" height="102" viewBox="0 0 92 102" fill="none" xmlns="http://www.w3.org/2000/svg">
<path d="M22.3187 23.2221H70.5094V75.1942C70.5094 78.9503 69.0183 82.5525 66.3642 85.2085C63.7101 87.8645 60.1103 89.3566 56.3568 89.3566H36.4713C34.6111 89.3566 32.7691 88.9896 31.0507 88.2766C29.3324 87.5636 27.7713 86.5187 26.4569 85.2014C25.1424 83.8842 24.1004 82.3206 23.3903 80.6001C22.6802 78.8795 22.3161 77.0357 22.3187 75.1742V23.2021V23.2221Z" stroke="#828282" stroke-width="2" stroke-linecap="round" stroke-linejoin="round"/>
<path d="M70 47.779L87.5284 30.1984C89.7515 27.9687 91 24.9477 91 21.798C91 18.6483 89.7515 15.6272 87.5284 13.3975L78.5894 4.48227C77.4875 3.37834 76.1788 2.50258 74.7384 1.90506C73.298 1.30755 71.754 1 70.1948 1C68.6355 1 67.0915 1.30755 65.6511 1.90506C64.2107 2.50258 62.9021 3.37834 61.8001 4.48227L46.0295 20.3937L30.1691 4.58222C29.0671 3.47828 27.7585 2.60252 26.3181 2.00501C24.8777 1.40749 23.3337 1.09995 21.7744 1.09995C20.2151 1.09995 18.6712 1.40749 17.2307 2.00501C15.7903 2.60252 14.4817 3.47828 13.3798 4.58222L4.47073 13.5774C2.24825 15.8054 1 18.8248 1 21.9729C1 25.1209 2.24825 28.1404 4.47073 30.3684L21.9492 47.779" stroke="#828282" stroke-width="2" stroke-linecap="round" stroke-linejoin="round"/>
<path d="M46.7986 56.6642C53.8812 56.6642 59.6228 50.9187 59.6228 43.8311C59.6228 36.7436 53.8812 30.998 46.7986 30.998C39.716 30.998 33.9744 36.7436 33.9744 43.8311C33.9744 50.9187 39.716 56.6642 46.7986 56.6642Z" stroke="#828282" stroke-width="2" stroke-linecap="round" stroke-linejoin="round"/>
<path d="M38.6387 81.5509C42.9302 81.5509 46.4091 78.0696 46.4091 73.7751C46.4091 69.4806 42.9302 65.9993 38.6387 65.9993C34.3472 65.9993 30.8683 69.4806 30.8683 73.7751C30.8683 78.0696 34.3472 81.5509 38.6387 81.5509Z" stroke="#828282" stroke-width="2" stroke-linecap="round" stroke-linejoin="round"/>
<path d="M59.6328 72.2258C61.7785 72.2258 63.518 70.4851 63.518 68.3379C63.518 66.1906 61.7785 64.45 59.6328 64.45C57.487 64.45 55.7476 66.1906 55.7476 68.3379C55.7476 70.4851 57.487 72.2258 59.6328 72.2258Z" stroke="#828282" stroke-width="2" stroke-linecap="round" stroke-linejoin="round"/>
<path d="M46.419 48.1088C48.5648 48.1088 50.3042 46.3681 50.3042 44.2209C50.3042 42.0737 48.5648 40.333 46.419 40.333C44.2733 40.333 42.5338 42.0737 42.5338 44.2209C42.5338 46.3681 44.2733 48.1088 46.419 48.1088Z" stroke="#828282" stroke-width="2" stroke-linecap="round" stroke-linejoin="round"/>
<path d="M33.9843 41.5225L30.7982 73.4653" stroke="#828282" stroke-width="2" stroke-linecap="round" stroke-linejoin="round"/>
<path d="M42.5937 80.2715L61.1209 72.0359" stroke="#828282" stroke-width="2" stroke-linecap="round" stroke-linejoin="round"/>
<path d="M63.5179 68.338L59.6327 44.2209" stroke="#828282" stroke-width="2" stroke-linecap="round" stroke-linejoin="round"/>
<path d="M69.7302 55.8846H79.0587C81.5328 55.8846 83.9055 56.8681 85.655 58.6188C87.4044 60.3694 88.3872 62.7438 88.3872 65.2196V65.2196C88.3872 67.6954 87.4044 70.0698 85.655 71.8205C83.9055 73.5711 81.5328 74.5546 79.0587 74.5546H69.7302V55.8846Z" stroke="#828282" stroke-width="2" stroke-linecap="round" stroke-linejoin="round"/>
<path d="M22.3287 75.3342H13.0002C10.5262 75.3342 8.15341 74.3507 6.40398 72.6001C4.65454 70.8494 3.67172 68.475 3.67172 65.9992V65.9992C3.67172 63.5235 4.65454 61.1491 6.40398 59.3984C8.15341 57.6478 10.5262 56.6643 13.0002 56.6643H22.3287V75.3342Z" stroke="#828282" stroke-width="2" stroke-linecap="round" stroke-linejoin="round"/>
<path d="M10.8529 56.7142C11.9059 51.6688 14.0841 46.9267 17.2251 42.8417" stroke="#828282" stroke-width="2" stroke-linecap="round" stroke-linejoin="round"/>
<path d="M81.396 74.9443C79.1784 82.4309 74.6137 89.0055 68.3761 93.6971C62.1385 98.3887 54.5585 100.949 46.7555 100.999C38.9525 101.05 31.3402 98.5877 25.0425 93.9771C18.7449 89.3664 14.0958 82.8514 11.7817 75.3941" stroke="#828282" stroke-width="2" stroke-linecap="round" stroke-linejoin="round"/>
<path d="M75.3733 42.282C78.6114 46.3152 80.8926 51.0311 82.0451 56.0746" stroke="#828282" stroke-width="2" stroke-linecap="round" stroke-linejoin="round"/>
</svg>
