<svg width="94" height="104" viewBox="0 0 94 104" fill="none" xmlns="http://www.w3.org/2000/svg">
<path d="M23.3189 24.2221H71.5095V76.1942C71.5095 79.9503 70.0184 83.5525 67.3643 86.2085C64.7102 88.8645 61.1104 90.3566 57.3569 90.3566H37.4714C35.6112 90.3566 33.7692 89.9896 32.0509 89.2766C30.3325 88.5636 28.7714 87.5187 27.457 86.2014C26.1425 84.8842 25.1005 83.3206 24.3904 81.6001C23.6804 79.8795 23.3162 78.0357 23.3189 76.1742V24.2021V24.2221Z" stroke="white" stroke-width="4" stroke-linecap="round" stroke-linejoin="round"/>
<path d="M71 48.779L88.5284 31.1984C90.7515 28.9687 92 25.9477 92 22.798C92 19.6483 90.7515 16.6272 88.5284 14.3975L79.5894 5.48227C78.4875 4.37834 77.1788 3.50258 75.7384 2.90506C74.298 2.30755 72.754 2 71.1948 2C69.6355 2 68.0915 2.30755 66.6511 2.90506C65.2107 3.50258 63.9021 4.37834 62.8001 5.48227L47.0295 21.3937L31.1691 5.58222C30.0671 4.47828 28.7585 3.60252 27.3181 3.00501C25.8777 2.40749 24.3337 2.09995 22.7744 2.09995C21.2151 2.09995 19.6712 2.40749 18.2307 3.00501C16.7903 3.60252 15.4817 4.47828 14.3798 5.58222L5.47073 14.5774C3.24825 16.8054 2 19.8248 2 22.9729C2 26.1209 3.24825 29.1404 5.47073 31.3684L22.9492 48.779" stroke="white" stroke-width="4" stroke-linecap="round" stroke-linejoin="round"/>
<path d="M47.7986 57.6642C54.8812 57.6642 60.6228 51.9187 60.6228 44.8311C60.6228 37.7436 54.8812 31.998 47.7986 31.998C40.716 31.998 34.9744 37.7436 34.9744 44.8311C34.9744 51.9187 40.716 57.6642 47.7986 57.6642Z" stroke="white" stroke-width="4" stroke-linecap="round" stroke-linejoin="round"/>
<path d="M39.6386 82.5508C43.9301 82.5508 47.409 79.0695 47.409 74.775C47.409 70.4806 43.9301 66.9992 39.6386 66.9992C35.3471 66.9992 31.8682 70.4806 31.8682 74.775C31.8682 79.0695 35.3471 82.5508 39.6386 82.5508Z" stroke="white" stroke-width="4" stroke-linecap="round" stroke-linejoin="round"/>
<path d="M60.6328 73.2258C62.7785 73.2258 64.518 71.4852 64.518 69.3379C64.518 67.1907 62.7785 65.45 60.6328 65.45C58.487 65.45 56.7476 67.1907 56.7476 69.3379C56.7476 71.4852 58.487 73.2258 60.6328 73.2258Z" stroke="white" stroke-width="4" stroke-linecap="round" stroke-linejoin="round"/>
<path d="M47.4189 49.1088C49.5646 49.1088 51.3041 47.3681 51.3041 45.2209C51.3041 43.0737 49.5646 41.333 47.4189 41.333C45.2732 41.333 43.5337 43.0737 43.5337 45.2209C43.5337 47.3681 45.2732 49.1088 47.4189 49.1088Z" stroke="white" stroke-width="4" stroke-linecap="round" stroke-linejoin="round"/>
<path d="M34.9844 42.5224L31.7983 74.4652" stroke="white" stroke-width="4" stroke-linecap="round" stroke-linejoin="round"/>
<path d="M43.5937 81.2715L62.1209 73.0359" stroke="white" stroke-width="4" stroke-linecap="round" stroke-linejoin="round"/>
<path d="M64.518 69.3379L60.6328 45.2209" stroke="white" stroke-width="4" stroke-linecap="round" stroke-linejoin="round"/>
<path d="M70.7302 56.8846H80.0587C82.5328 56.8846 84.9055 57.8681 86.655 59.6188C88.4044 61.3694 89.3872 63.7438 89.3872 66.2196V66.2196C89.3872 68.6954 88.4044 71.0698 86.655 72.8205C84.9055 74.5711 82.5328 75.5546 80.0587 75.5546H70.7302V56.8846Z" stroke="white" stroke-width="4" stroke-linecap="round" stroke-linejoin="round"/>
<path d="M23.3286 76.3342H14.0001C11.526 76.3342 9.15329 75.3507 7.40386 73.6C5.65442 71.8494 4.6716 69.475 4.6716 66.9992V66.9992C4.6716 64.5234 5.65442 62.149 7.40386 60.3984C9.15329 58.6477 11.526 57.6642 14.0001 57.6642H23.3286V76.3342Z" stroke="white" stroke-width="4" stroke-linecap="round" stroke-linejoin="round"/>
<path d="M11.853 57.7142C12.906 52.6688 15.0843 47.9266 18.2252 43.8416" stroke="white" stroke-width="4" stroke-linecap="round" stroke-linejoin="round"/>
<path d="M82.396 75.9443C80.1784 83.4309 75.6137 90.0055 69.3761 94.6971C63.1385 99.3887 55.5585 101.949 47.7555 101.999C39.9525 102.05 32.3402 99.5877 26.0425 94.9771C19.7449 90.3664 15.0958 83.8514 12.7817 76.3941" stroke="white" stroke-width="4" stroke-linecap="round" stroke-linejoin="round"/>
<path d="M76.3733 43.282C79.6114 47.3152 81.8926 52.0311 83.0451 57.0746" stroke="white" stroke-width="4" stroke-linecap="round" stroke-linejoin="round"/>
</svg>
