<svg width="172" height="78" viewBox="0 0 172 78" fill="none" xmlns="http://www.w3.org/2000/svg">
<path d="M56.0901 1H32.8801C30.1187 1 27.8801 3.23858 27.8801 6V9.46C27.8801 12.2214 30.1187 14.46 32.8801 14.46H56.0901C58.8515 14.46 61.0901 12.2214 61.0901 9.46V6C61.0901 3.23858 58.8515 1 56.0901 1Z" stroke="#828282" stroke-width="2" stroke-linecap="round" stroke-linejoin="round"/>
<path d="M41.3302 31.88V14.46H47.6502V31.88" stroke="#828282" stroke-width="2" stroke-linecap="round" stroke-linejoin="round"/>
<path d="M44.4902 46.9201C48.8588 46.9201 52.4002 43.3742 52.4002 39.0001C52.4002 34.626 48.8588 31.0801 44.4902 31.0801C40.1216 31.0801 36.5802 34.626 36.5802 39.0001C36.5802 43.3742 40.1216 46.9201 44.4902 46.9201Z" stroke="#828282" stroke-width="2" stroke-linecap="round" stroke-linejoin="round"/>
<path d="M32.8901 77H56.1001C58.8615 77 61.1001 74.7614 61.1001 72V68.54C61.1001 65.7786 58.8615 63.54 56.1001 63.54H32.8901C30.1287 63.54 27.8901 65.7786 27.8901 68.54V72C27.8901 74.7614 30.1287 77 32.8901 77Z" stroke="#828282" stroke-width="2" stroke-linecap="round" stroke-linejoin="round"/>
<path d="M47.6502 46.1299V63.5399H41.3302V46.1299" stroke="#828282" stroke-width="2" stroke-linecap="round" stroke-linejoin="round"/>
<path d="M143.07 1H119.86C117.099 1 114.86 3.23858 114.86 6V9.46C114.86 12.2214 117.099 14.46 119.86 14.46H143.07C145.832 14.46 148.07 12.2214 148.07 9.46V6C148.07 3.23858 145.832 1 143.07 1Z" stroke="#828282" stroke-width="2" stroke-linecap="round" stroke-linejoin="round"/>
<path d="M119.86 77H143.07C145.831 77 148.07 74.7614 148.07 72V68.54C148.07 65.7786 145.831 63.54 143.07 63.54H119.86C117.099 63.54 114.86 65.7786 114.86 68.54V72C114.86 74.7614 117.099 77 119.86 77Z" stroke="#828282" stroke-width="2" stroke-linecap="round" stroke-linejoin="round"/>
<path d="M134.63 14.46H128.3V63.54H134.63V14.46Z" stroke="#828282" stroke-width="2" stroke-linecap="round" stroke-linejoin="round"/>
<path d="M27.0901 73.8299H14.0901C12.3703 73.8418 10.6653 73.5124 9.07368 72.8606C7.48211 72.2089 6.03567 71.2478 4.81816 70.0331C3.60066 68.8184 2.63628 67.3742 1.9809 65.7841C1.32552 64.194 0.992161 62.4897 1.00014 60.7699V16.4399C0.992237 14.7277 1.32266 13.0307 1.97243 11.4466C2.6222 9.86241 3.57853 8.42221 4.78647 7.20868C5.99442 5.99516 7.4302 5.03222 9.01136 4.37516C10.5925 3.7181 12.2879 3.37987 14.0001 3.37988H27.0001" stroke="#828282" stroke-width="2" stroke-linecap="round" stroke-linejoin="round"/>
<path d="M61.0901 3.37988H114.07" stroke="#828282" stroke-width="2" stroke-linecap="round" stroke-linejoin="round"/>
<path d="M114.07 73.8301H61.0901" stroke="#828282" stroke-width="2" stroke-linecap="round" stroke-linejoin="round"/>
<path d="M148.07 3.37988H152.16C154.636 3.3812 157.087 3.87006 159.373 4.81858C161.659 5.76709 163.737 7.15668 165.486 8.90799C167.236 10.6593 168.623 12.738 169.569 15.0255C170.515 17.313 171.002 19.7645 171 22.2399V54.9699C171.002 57.4453 170.515 59.8967 169.569 62.1842C168.623 64.4717 167.236 66.5505 165.486 68.3018C163.737 70.0531 161.659 71.4427 159.373 72.3912C157.087 73.3397 154.636 73.8286 152.16 73.8299H148.07" stroke="#828282" stroke-width="2" stroke-linecap="round" stroke-linejoin="round"/>
</svg>
