<svg width="248" height="146" viewBox="0 0 248 146" fill="none" xmlns="http://www.w3.org/2000/svg">
<path d="M170.508 26.0672L147.391 3L134.545 6.43438L153.343 25.1922L147.764 45.9734L126.938 51.5406L108.139 32.7828L104.698 45.6016L127.815 68.6688L148.016 63.2766L184.593 99.775L179.189 119.933L202.306 143L215.153 139.566L196.355 120.808L201.934 100.027L222.76 94.4594L241.558 113.217L245 100.398L221.883 77.3312L201.682 82.7234L165.104 46.225L170.508 26.0672Z" stroke="#BDBDBD" stroke-width="5" stroke-linecap="round" stroke-linejoin="round"/>
<path d="M191.937 73L201.682 63.2766L221.883 68.6688L245 45.6016L241.558 32.7828L222.76 51.5406L201.934 45.9734L196.355 25.1922L215.153 6.43438L202.306 3L179.189 26.0672L184.593 46.225L174.849 55.9484" stroke="#BDBDBD" stroke-width="5" stroke-linecap="round" stroke-linejoin="round"/>
<path d="M157.76 73L148.016 82.7234L127.815 77.3312L104.698 100.398L108.139 113.217L126.938 94.4594L147.764 100.027L153.343 120.808L134.545 139.566L147.391 143L170.508 119.933L165.104 99.775L174.849 90.0516" stroke="#BDBDBD" stroke-width="5" stroke-linecap="round" stroke-linejoin="round"/>
<path d="M93.4623 50.8735L52.2374 92.0094L24.7579 64.5891L3 86.3L51.0975 134.294L52.2374 133.145L53.3884 134.294L115.22 72.5844" stroke="#BDBDBD" stroke-width="5" stroke-linecap="round" stroke-linejoin="round"/>
</svg>
