<svg width="296" height="143" viewBox="0 0 296 143" fill="none" xmlns="http://www.w3.org/2000/svg">
<path d="M206.396 5.2687e-05V6.1635C217.587 6.16064 228.433 9.98329 237.087 16.9803C245.741 23.9774 251.667 33.7161 253.856 44.5377C256.045 55.3593 254.362 66.5945 249.092 76.3295C243.823 86.0646 235.294 93.6975 224.958 97.9282C214.622 102.159 203.117 102.726 192.405 99.5318C181.693 96.3381 172.434 89.5814 166.207 80.4127C159.98 71.2439 157.169 60.2301 158.253 49.2473C159.337 38.2645 164.249 27.9919 172.153 20.1792C176.635 15.7236 181.97 12.1902 187.848 9.78424C193.727 7.37823 200.031 6.1475 206.396 6.1635V5.2687e-05ZM206.396 5.2687e-05C193.756 0.000923417 181.508 4.32385 171.739 12.232C161.971 20.1401 155.286 31.1439 152.824 43.3678C150.363 55.5916 152.277 68.2789 158.241 79.267C164.204 90.255 173.848 98.8637 185.529 103.626C197.209 108.388 210.203 109.008 222.295 105.381C234.387 101.755 244.83 94.105 251.843 83.7366C258.855 73.3682 262.004 60.9227 260.752 48.5215C259.5 36.1203 253.925 24.531 244.977 15.7292C239.912 10.7336 233.896 6.77268 227.276 4.07357C220.655 1.37445 213.56 -0.00983459 206.396 5.2687e-05Z" fill="#BDBDBD"/>
<path d="M206.396 11.0449V17.2084C214.989 17.2111 223.316 20.151 229.959 25.5273C236.601 30.9037 241.148 38.3841 242.825 46.6946C244.502 55.0051 243.206 63.6318 239.156 71.1057C235.107 78.5796 228.556 84.4384 220.618 87.6845C212.679 90.9306 203.845 91.3631 195.62 88.9085C187.395 86.4539 180.287 81.2639 175.507 74.2224C170.726 67.1809 168.569 58.7232 169.403 50.2897C170.237 41.8563 174.01 33.9685 180.079 27.9697C183.533 24.5593 187.636 21.8535 192.151 20.007C196.667 18.1605 201.507 17.2095 206.396 17.2084V11.0449ZM206.396 11.0449C195.009 11.2354 184.155 15.829 176.171 23.8358C168.187 31.8426 163.713 42.6216 163.713 53.85C163.713 65.0785 168.187 75.8575 176.171 83.8642C184.155 91.871 195.009 96.4646 206.396 96.6552C217.782 96.4646 228.636 91.871 236.62 83.8642C244.604 75.8575 249.078 65.0785 249.078 53.85C249.078 42.6216 244.604 31.8426 236.62 23.8358C228.636 15.829 217.782 11.2354 206.396 11.0449Z" fill="#BDBDBD"/>
<path d="M206.358 31.7172C212.311 31.7171 218.022 34.043 222.24 38.1855C226.457 42.3279 228.838 47.9495 228.862 53.8193" stroke="#BDBDBD" stroke-width="5" stroke-miterlimit="10" stroke-linecap="round"/>
<path d="M252.953 77.2279L265.842 89.8999L242.101 113.358L229.212 100.686" stroke="#BDBDBD" stroke-width="5" stroke-linecap="round" stroke-linejoin="round"/>
<path d="M263.367 92.353L289.133 117.697C291.61 120.154 293 123.478 293 126.942C293 130.407 291.61 133.73 289.133 136.187V136.187C286.641 138.629 283.27 140 279.757 140C276.243 140 272.873 138.629 270.38 136.187L244.614 110.831" stroke="#BDBDBD" stroke-width="5" stroke-linecap="round" stroke-linejoin="round"/>
<path d="M69.0619 123.417C82.2083 123.417 92.8656 112.909 92.8656 99.9465C92.8656 86.9841 82.2083 76.4761 69.0619 76.4761C55.9155 76.4761 45.2582 86.9841 45.2582 99.9465C45.2582 112.909 55.9155 123.417 69.0619 123.417Z" stroke="#BDBDBD" stroke-width="5" stroke-linecap="round" stroke-linejoin="round"/>
<path d="M69.0619 88.2112C72.2185 88.2112 75.2457 89.4476 77.4778 91.6483C79.7098 93.8491 80.9637 96.834 80.9637 99.9464" stroke="#BDBDBD" stroke-width="5" stroke-linecap="round" stroke-linejoin="round"/>
<path d="M69.0619 111.682C65.9053 111.682 62.878 110.445 60.646 108.245C58.414 106.044 57.16 103.059 57.16 99.9465" stroke="#BDBDBD" stroke-width="5" stroke-linecap="round" stroke-linejoin="round"/>
<path d="M38.2571 115.133L20.8544 113.592C17.6322 112.684 14.6401 111.117 12.0725 108.993C9.50504 106.869 7.41969 104.236 5.95212 101.265C2.65161 94.6089 1.38892 89.2097 6.05214 86.1403C14.4534 80.6179 38.2571 62.7192 99.8166 64.0505L143.223 66.8118" stroke="#BDBDBD" stroke-width="5" stroke-linecap="round" stroke-linejoin="round"/>
<path d="M78.7009 62.6576C78.7009 62.6576 100.629 45.4 143.273 40.3213" stroke="#BDBDBD" stroke-width="5" stroke-linecap="round" stroke-linejoin="round"/>
<path d="M99.8666 115.133H200.682" stroke="#BDBDBD" stroke-width="5" stroke-linecap="round" stroke-linejoin="round"/>
</svg>
